HIERARCHY
ROOT Hips
{
	OFFSET 0.000000 0.000000 0.000000 
	CHANNELS 6 Xposition Yposition Zposition Yrotation Zrotation Xrotation 
	JOINT Lumbar
	{
		OFFSET 0.000000 0.000000 0.000000 
		CHANNELS 3 Zrotation Xrotation Yrotation
		JOINT Neck
		{
			OFFSET 0.000000 0.445665 0.000000 
			CHANNELS 3 Zrotation Xrotation Yrotation
			End Site
			{
				OFFSET 0.000000 0.227535 0.000000 
			}
		}
		JOINT RightShoulder
		{
			OFFSET 0.019635 0.377685 0.194865 
			CHANNELS 3 Zrotation Xrotation Yrotation
			JOINT RightElbow
			{
				OFFSET 0.000000 -0.243375 0.000000 
				CHANNELS 2 Zrotation Yrotation
				JOINT RightWrist
				{
					OFFSET 0.000000 -0.264825 0.000000 
					CHANNELS 2 Zrotation Xrotation
					End Site
					{
						OFFSET 0.006600 -0.176220 0.000990 
					}
				}
			}
		}
		JOINT LeftShoulder
		{
			OFFSET 0.019635 0.377685 -0.194865 
			CHANNELS 3 Zrotation Xrotation Yrotation
			JOINT LeftElbow
			{
				OFFSET 0.000000 -0.243375 0.000000 
				CHANNELS 2 Zrotation Yrotation
				JOINT LeftWrist
				{
					OFFSET 0.000000 -0.264825 0.000000 
					CHANNELS 2 Zrotation Xrotation
					End Site
					{
						OFFSET 0.006600 -0.176220 -0.000990 
					}
				}
			}
		}
	}
	JOINT RightHip
	{
		OFFSET 0.052140 -0.069960 0.075570 
		CHANNELS 3 Zrotation Xrotation Yrotation
		JOINT RightKnee
		{
			OFFSET 0.000000 -0.402270 0.000000 
			CHANNELS 1 Zrotation
			JOINT RightAnkle
			{
				OFFSET 0.000000 -0.404085 0.000000 
				CHANNELS 3 Zrotation Xrotation Yrotation
				End Site
				{
					OFFSET 0.204105 -0.089430 0.008415 
				}
			}
		}
	}
	JOINT LeftHip
	{
		OFFSET 0.052140 -0.069960 -0.075570 
		CHANNELS 3 Zrotation Xrotation Yrotation
		JOINT LeftKnee
		{
			OFFSET 0.000000 -0.402270 0.000000 
			CHANNELS 1 Zrotation
			JOINT LeftAnkle
			{
				OFFSET 0.000000 -0.404085 0.000000 
				CHANNELS 3 Zrotation Xrotation Yrotation
				End Site
				{
					OFFSET 0.204105 -0.089430 -0.008415 
				}
			}
		}
	}
}
MOTION
Frames: 26
Frame Time: 0.02
0 0.95578 0 175.9212 0 -5.44008 7.26734 4.3134 -3.16894 -26.29893 3.51737 0.16004 27.59658 -16.58444 15.2702 14.63439 86.37706 -3.13133 -7.38817 24.69239 9.84693 -21.22448 12.87164 -82.72878 -4.70205 4.74056 -5.13568 6.04515 -8.28617 -6.72286 -11.85653 -2.47469 -9.92942 -7.52722 6.55001 13.48964 -1.74242 -4.97549 3.3308 7.11628
-0.00075 0.95567 -0.00181 175.73069 0 -5.44647 7.32214 4.38965 -3.08717 -26.51251 3.49444 0.21764 27.73183 -16.52472 15.22046 14.58245 86.32793 -3.06442 -7.3345 24.75357 9.90048 -20.71139 12.71498 -82.71642 -4.6751 4.6573 -5.18018 6.12716 -8.12562 -6.6886 -11.81816 -2.47919 -9.92451 -7.59885 6.62269 13.65213 -1.76262 -4.9592 3.33577 7.14815
-0.0015 0.95555 -0.00362 175.54127 0 -5.45291 7.37589 4.46547 -3.00569 -26.72525 3.47166 0.27515 27.86432 -16.46531 15.16822 14.52865 86.27714 -2.99722 -7.27963 24.81325 9.95437 -20.19881 12.55841 -82.70387 -4.648 4.57408 -5.22387 6.20925 -7.96362 -6.65556 -11.77985 -2.48349 -9.92192 -7.67029 6.69553 13.81256 -1.78232 -4.9434 3.3407 7.18008
-0.00224 0.95544 -0.00542 175.35328 0 -5.45956 7.42695 4.5405 -2.92452 -26.93732 3.44877 0.33258 27.98999 -16.40594 15.11096 14.4684 86.2195 -2.92873 -7.22067 24.86893 10.00986 -19.68536 12.40161 -82.69057 -4.62043 4.49077 -5.26506 6.29125 -7.80289 -6.62651 -11.74096 -2.48817 -9.9194 -7.74137 6.76905 13.96482 -1.80144 -4.92883 3.34596 7.21522
-0.00304 0.95531 -0.00724 175.15642 0 -5.46501 7.49344 4.61992 -2.84162 -27.15361 3.42582 0.39009 28.15522 -16.34562 15.08683 14.44417 86.19842 -2.86774 -7.18484 24.94745 10.05659 -19.17905 12.24718 -82.68135 -4.5958 4.4086 -5.31986 6.37226 -7.64572 -6.57568 -11.70463 -2.49224 -9.90551 -7.814 6.83818 14.15852 -1.82508 -4.90706 3.34997 7.23659
-0.0037 0.95521 -0.00904 174.97943 0 -5.47305 7.52643 4.68983 -2.76254 -27.36032 3.40347 0.44757 28.23428 -16.28788 14.98821 14.34252 86.09988 -2.79049 -7.09916 24.97646 10.12196 -18.65645 12.08709 -82.66343 -4.56468 4.32368 -5.34559 6.45629 -7.4742 -6.57139 -11.66326 -2.49663 -9.92313 -7.8835 6.91704 14.26566 -1.83815 -4.90103 3.35629 7.28484
-0.004 0.95515 -0.0108 174.84686 0 -5.48823 7.47113 4.73547 -2.69145 -27.54984 3.37896 0.50518 28.08912 -16.23221 14.71204 14.02682 85.77832 -2.66826 -6.87616 24.87487 10.24067 -18.0861 11.91294 -82.62071 -4.51672 4.23189 -5.29058 6.54284 -7.31771 -6.69652 -11.60315 -2.51008 -9.96705 -7.94398 7.02168 14.11711 -1.82955 -4.9358 3.37234 7.42989
-0.00416 0.95511 -0.01256 174.7363 0 -5.50598 7.3812 4.77103 -2.62467 -27.72858 3.35601 0.56299 27.85469 -16.18043 14.35605 13.6327 85.38012 -2.52952 -6.60246 24.72259 10.37764 -17.49886 11.73254 -82.56923 -4.46202 4.1371 -5.20629 6.63356 -7.1379 -6.86847 -11.53863 -2.52236 -10.05283 -8.00132 7.13645 13.88409 -1.80892 -4.98703 3.39017 7.59797
-0.00438 0.95506 -0.01432 174.62211 0 -5.52263 7.30426 4.81015 -2.55737 -27.90599 3.33444 0.62035 27.65142 -16.12954 14.01678 13.27419 85.02221 -2.39821 -6.35149 24.5887 10.50563 -16.92082 11.55385 -82.52229 -4.40957 4.0431 -5.13554 6.72639 -6.93125 -7.01879 -11.47932 -2.52988 -10.16049 -8.06057 7.24745 13.7003 -1.78881 -5.03244 3.40501 7.74113
-0.00464 0.95502 -0.01606 174.4804 0 -5.53923 7.23884 4.85419 -2.48372 -28.10812 3.3029 0.67831 27.48615 -16.06572 13.75649 12.91568 84.64034 -2.26714 -6.10208 24.47227 10.63789 -16.3377 11.3802 -82.47328 -4.36029 3.9515 -5.06356 6.80259 -6.87698 -7.17117 -11.40698 -2.55974 -10.10024 -8.11828 7.35497 13.47065 -1.78937 -5.07065 3.42893 7.94571
-0.00476 0.95498 -0.01785 174.40206 0 -5.55627 7.14129 4.88482 -2.42469 -28.25813 3.29395 0.73618 27.2227 -16.03191 13.31722 12.53875 84.29137 -2.13178 -5.83711 24.31018 10.76381 -15.75956 11.19425 -82.42615 -4.30312 3.85426 -4.98749 6.91402 -6.50687 -7.32962 -11.36014 -2.54277 -10.39373 -8.17785 7.47211 13.31662 -1.74429 -5.12802 3.43449 8.02728
-0.00452 0.95495 -0.0198 174.48595 0 -5.57613 6.96243 4.88733 -2.40181 -28.24989 3.33456 0.78456 26.69104 -16.06183 12.36566 12.12843 84.0413 -1.98729 -5.54389 24.01044 10.88283 -15.21273 10.97871 -82.38902 -4.22321 3.74175 -4.90475 7.12494 -5.21279 -7.49987 -11.38982 -2.39784 -11.70142 -8.2483 7.61375 13.39002 -1.57398 -5.23214 3.38788 7.7689
-0.00412 0.95493 -0.02181 174.63419 0 -5.59594 6.75244 4.8755 -2.39409 -28.19231 3.40026 0.83461 26.06694 -16.12536 11.24437 11.70288 83.82876 -1.83933 -5.23653 23.67067 10.99187 -14.66915 10.75066 -82.35352 -4.13608 3.62389 -4.81934 7.37042 -3.61471 -7.67338 -11.4443 -2.20617 -13.35247 -8.31971 7.76471 13.5424 -1.35868 -5.35539 3.32294 7.38537
-0.00377 0.95491 -0.0238 174.75784 0 -5.61433 6.55765 4.86597 -2.38155 -28.16901 3.46253 0.88984 25.49788 -16.18526 10.22466 11.28505 83.60634 -1.69377 -4.93388 23.36531 11.0958 -14.115 10.52625 -82.31557 -4.05396 3.50862 -4.73684 7.59811 -2.1906 -7.84114 -11.48417 -2.03451 -14.81798 -8.38757 7.9111 13.66055 -1.16524 -5.47126 3.26703 7.0551
-0.00351 0.95489 -0.02573 174.86273 0 -5.63889 6.358 4.87381 -2.36047 -28.09706 3.49083 0.91976 24.87171 -16.19556 9.09645 10.85993 83.35188 -1.54402 -4.6359 22.99095 11.24176 -13.59786 10.30953 -82.28473 -3.96429 3.39207 -4.64629 7.8353 -0.60499 -8.02861 -11.53821 -1.86578 -16.41891 -8.4689 8.05906 13.77054 -0.96493 -5.5821 3.20813 6.73917
-0.00304 0.95486 -0.02782 175.02152 0 -5.65055 6.16054 4.84231 -2.36064 -28.11264 3.59625 1.00311 24.34243 -16.3178 8.15809 10.44888 83.17292 -1.40259 -4.3265 22.74989 11.29675 -13.00561 10.07484 -82.23931 -3.88876 3.27758 -4.57209 8.06014 0.70422 -8.1751 -11.56841 -1.68266 -17.80694 -8.52191 8.20606 13.91512 -0.76901 -5.70783 3.15121 6.36555
-0.00205 0.95483 -0.03032 175.3148 0 -5.62674 5.98496 4.70488 -2.41658 -28.40033 3.90481 1.23044 24.11435 -16.7347 7.75923 10.06847 83.20357 -1.28347 -3.98099 22.8998 11.10995 -12.19803 9.78596 -82.15576 -3.85379 3.16507 -4.54525 8.24894 1.28068 -8.20779 -11.52938 -1.44704 -18.62704 -8.50072 8.34626 14.15511 -0.5911 -5.86933 3.10318 5.84468
-0.00084 0.95479 -0.03299 175.65975 0 -5.58991 5.81105 4.52864 -2.49328 -28.77385 4.2907 1.51184 23.98519 -17.26406 7.56256 9.70559 83.30741 -1.17336 -3.62648 23.18258 10.83063 -11.31698 9.48109 -82.05708 -3.83339 3.05585 -4.53482 8.42305 1.55104 -8.19867 -11.4652 -1.20281 -19.20355 -8.45009 8.48549 14.4237 -0.42024 -6.04521 3.05799 5.27378
0.00029 0.95475 -0.0356 175.97996 0 -5.55897 5.6315 4.3706 -2.55983 -29.0969 4.64372 1.77081 23.80416 -17.74623 7.29098 9.34263 83.37131 -1.06001 -3.28127 23.39677 10.58894 -10.47332 9.18831 -81.96366 -3.80652 2.94834 -4.51596 8.59937 1.88979 -8.20855 -11.41055 -0.97877 -19.82046 -8.41033 8.62635 14.66743 -0.24946 -6.21485 3.01219 4.73741
0.00134 0.95471 -0.03813 176.3076 0 -5.52816 5.47249 4.20929 -2.62965 -29.46915 4.98842 2.02168 23.6497 -18.21376 6.94189 8.94489 83.46446 -0.94231 -2.91244 23.64607 10.36527 -9.60958 8.87386 -81.87698 -3.77874 2.8268 -4.50102 8.79506 2.52848 -8.21928 -11.36402 -0.68553 -20.73737 -8.38168 8.76252 14.9653 -0.06292 -6.38388 2.96282 4.14545
0.0026 0.95467 -0.04087 176.63136 0 -5.49395 5.27017 4.04628 -2.69775 -29.7568 5.368 2.30113 23.46377 -18.73712 6.80431 8.62512 83.51384 -0.8366 -2.59223 23.85195 10.08261 -8.77433 8.60198 -81.77283 -3.75643 2.73574 -4.48194 8.94736 2.47737 -8.21738 -11.29526 -0.53354 -20.97817 -8.32226 8.90809 15.15449 0.08815 -6.55742 2.92186 3.66084
0.00438 0.9546 -0.04411 176.93025 0 -5.45392 4.95954 3.88382 -2.75296 -29.81675 5.82878 2.65567 23.17509 -19.39482 7.20448 8.50667 83.4224 -0.75546 -2.39715 23.92612 9.65653 -8.00083 8.4427 -81.62297 -3.74548 2.72464 -4.44673 8.97533 0.49423 -8.19815 -11.16264 -0.78635 -19.31347 -8.18978 9.07998 15.05171 0.14507 -6.73839 2.90306 3.46891
0.00637 0.95453 -0.04754 177.22341 0 -5.41082 4.60322 3.72204 -2.80629 -29.78376 6.32092 3.03521 22.85065 -20.10298 7.81106 8.46799 83.28469 -0.68727 -2.25355 23.94845 9.17508 -7.26552 8.32861 -81.45645 -3.73959 2.74477 -4.40702 8.9614 -2.15554 -8.16606 -11.00994 -1.17937 -16.99273 -8.02611 9.26128 14.8361 0.16525 -6.92316 2.89276 3.38955
0.0083 0.95446 -0.05089 177.51985 0 -5.36889 4.26033 3.56256 -2.86237 -29.77595 6.7964 3.3973 22.53707 -20.78313 8.32167 8.39918 83.16924 -0.61732 -2.0938 23.98103 8.72093 -6.53502 8.19957 -81.29812 -3.73151 2.75284 -4.36971 8.97188 -4.43396 -8.13531 -10.872 -1.50031 -15.03575 -7.8741 9.43817 14.66089 0.20155 -7.10758 2.879 3.27077
0.0101 0.9544 -0.05423 177.81526 0 -5.32753 3.94854 3.38992 -2.91097 -29.84328 7.2858 3.78753 22.248 -21.48964 8.84744 8.30505 83.05079 -0.53026 -1.90288 24.07403 8.25389 -5.70644 8.04597 -81.13596 -3.72346 2.75198 -4.33107 8.95951 -7.00942 -8.12302 -10.70962 -1.85672 -12.79598 -7.73317 9.61565 14.52962 0.24288 -7.28836 2.86383 3.10389
0.01221 0.95432 -0.05764 178.11082 0 -5.28433 3.56099 3.24632 -2.97471 -29.7307 7.75134 4.12367 21.90016 -22.15054 9.38921 8.28249 82.9271 -0.48178 -1.78955 24.02763 7.80254 -5.09462 7.955 -80.97891 -3.71635 2.77715 -4.29441 8.9846 -9.12331 -8.06865 -10.59346 -2.17204 -10.98939 -7.56026 9.79408 14.28346 0.26156 -7.47533 2.8533 3.06047
